# xmcd
#
# Track frame offsets: 
#        182
#        7982
#        20657
#        29657
#        41282
#        57482
#        73232
#        86582
#        99332
#        108032
#        119732
#        134432
#        148232
#        161432
#        172382
#        185132
#        200357
#        210032
#        226082
#        243632
#
# Disc length: 3403 seconds
#
# Revision: 0
# Processed by: cddbd v1.5.2PL0 Copyright (c) Steve Scherf et al.
# Submitted via: ExactAudioCopy v0.99pb5
#
DISCID=1f0d4914
DTITLE=Various Artist - True Country Love CD1
DYEAR=1900
DGENRE=Country
TTITLE0=George Jones - Jambalaya
TTITLE1=Conway Twitty - I See Want In Your Eyes
TTITLE2=Don Gibson - Blue Blue Day
TTITLE3=Patsy Cline - Walkin' After Midnight
TTITLE4=Rex Allen Jnr - Memory Train
TTITLE5=Sammi Smith - Mr Bojangles
TTITLE6=Gene Pitney - The Man Who Shot Liberty Valance
TTITLE7=Anne Murray - I Just Fall In Love Again
TTITLE8=Ferlin Husky - Wings Of A Dove
TTITLE9=Boxcar Willie - Sioux City Sue
TTITLE10=Don Gibson - I Can't Stop Loving You
TTITLE11=B.J.Thomas - Raindrops Keep Falling On My Head
TTITLE12=Lynn Anderson - Rose Garden
TTITLE13=Roger Miller - King Of The Road
TTITLE14=Lee Hazelwood - These Boots Are Made For Walkin'
TTITLE15=Don Fardon - Indian Reservation
TTITLE16=Faron Young - Congratulations
TTITLE17=Gary Puckett - Crying
TTITLE18=Kenny Rogers - Somethings Burnin
TTITLE19=Willie Nelson - Touch Me
EXTD=
EXTT0=
EXTT1=
EXTT2=
EXTT3=
EXTT4=
EXTT5=
EXTT6=
EXTT7=
EXTT8=
EXTT9=
EXTT10=
EXTT11=
EXTT12=
EXTT13=
EXTT14=
EXTT15=
EXTT16=
EXTT17=
EXTT18=
EXTT19=
PLAYORDER=
